<svg id="Layer_1" viewBox="0 0 24 24" xmlns="http://www.w3.org/2000/svg" data-name="Layer 1"><path d="m16 12c2.205 0 4 1.795 4 4s-1.795 4-4 4-4-1.795-4-4 1.795-4 4-4zm-8.18-5.259.916-.507c-.146-.385-.236-.799-.236-1.234s.09-.849.236-1.234l-.916-.507c-.242-.134-.329-.438-.195-.68.133-.241.438-.329.68-.195l.919.509c.543-.714 1.348-1.208 2.276-1.342v-1.051c0-.276.224-.5.5-.5s.5.224.5.5v1.051c.927.134 1.732.628 2.276 1.342l.919-.509c.241-.134.546-.046.68.195.134.242.046.546-.195.68l-.916.507c.146.385.236.799.236 1.234s-.09.849-.236 1.234l.916.507c.242.134.329.438.195.68-.134.243-.443.328-.68.195l-.919-.509c-.543.714-1.348 1.208-2.276 1.342v1.051c0 .276-.224.5-.5.5s-.5-.224-.5-.5v-1.051c-.927-.134-1.732-.628-2.276-1.342l-.919.509c-.237.132-.545.049-.68-.195-.134-.242-.046-.546.195-.68zm1.68-1.741c0 1.378 1.122 2.5 2.5 2.5s2.5-1.122 2.5-2.5-1.122-2.5-2.5-2.5-2.5 1.122-2.5 2.5zm9.167 3.456c-.261-.093-.546.044-.638.305-.092.26.044.546.305.638 2.791.987 4.667 3.64 4.667 6.602 0 3.859-3.14 7-7 7h-8.001c-3.86 0-7-3.141-7-7 0-2.962 1.875-5.615 4.667-6.602.26-.092.397-.377.305-.638-.091-.261-.377-.397-.638-.305-3.191 1.127-5.334 4.159-5.334 7.544 0 4.411 3.589 8 8 8h8c4.411 0 8-3.589 8-8 0-3.385-2.143-6.417-5.333-7.544z"/></svg>