<svg id="Layer_1" viewBox="0 0 24 24" xmlns="http://www.w3.org/2000/svg" data-name="Layer 1"><path d="m23.243 10.173-2.243-2.243v-2.43c0-1.378-1.121-2.5-2.5-2.5h-2.43l-2.243-2.243c-.975-.977-2.68-.977-3.654 0l-2.243 2.243h-2.43c-1.379 0-2.5 1.122-2.5 2.5v2.43l-2.243 2.243c-1.007 1.007-1.007 2.647 0 3.654l2.243 2.243v2.43c0 1.379 1.121 2.5 2.5 2.5h2.43l2.243 2.243c.504.504 1.165.756 1.827.756s1.323-.252 1.827-.756l2.243-2.243h2.43c1.379 0 2.5-1.121 2.5-2.5v-2.43l2.243-2.243c1.007-1.007 1.007-2.647 0-3.654zm-.707 2.947-2.39 2.39c-.094.094-.146.221-.146.354v2.637c0 .827-.673 1.5-1.5 1.5h-2.637c-.133 0-.26.053-.354.146l-2.39 2.39c-.598.598-1.643.598-2.24 0l-2.39-2.39c-.094-.094-.221-.146-.354-.146h-2.637c-.827 0-1.5-.673-1.5-1.5v-2.637c0-.133-.053-.26-.146-.354l-2.39-2.39c-.617-.618-.617-1.623 0-2.24l2.39-2.39c.094-.094.146-.221.146-.354v-2.637c0-.827.673-1.5 1.5-1.5h2.637c.133 0 .26-.053.354-.146l2.39-2.39c.598-.599 1.643-.599 2.24 0l2.39 2.39c.094.094.221.146.354.146h2.637c.827 0 1.5.673 1.5 1.5v2.637c0 .133.053.26.146.354l2.39 2.39c.617.618.617 1.623 0 2.24zm-7.197-4.397c.412-.221.659-.618.661-1.061 0-.45-.26-.872-.682-1.102-.385-.208-1.196-.559-2.319-.56h-.002c-1.802 0-3.331.616-4.425 1.782-1.014 1.082-1.572 2.579-1.572 4.217s.559 3.135 1.572 4.217c1.094 1.166 2.623 1.782 4.425 1.782h.002c1.122 0 1.935-.351 2.319-.56.422-.229.683-.652.682-1.103-.002-.443-.249-.84-.661-1.06-1.509-.808-2.339-1.972-2.339-3.277s.83-2.47 2.339-3.277zm-3.339 3.277c0 1.691 1.018 3.169 2.867 4.158.06.033.132.091.133.182 0 .084-.06.166-.16.221-.242.132-.906.438-1.841.438h-.002c-1.519 0-2.796-.507-3.695-1.466-.839-.896-1.302-2.15-1.302-3.533s.463-2.637 1.302-3.533c.899-.959 2.177-1.466 3.695-1.466h.002c.936 0 1.6.307 1.841.438.101.054.16.137.16.22 0 .091-.073.149-.134.182-1.849.989-2.866 2.466-2.866 4.159z"/></svg>