<svg id="Layer_1" viewBox="0 0 24 24" xmlns="http://www.w3.org/2000/svg" data-name="Layer 1"><path d="m17.5 0h-8c-2.481 0-4.5 2.019-4.5 4.5v12c0 2.481 2.019 4.5 4.5 4.5h8c2.481 0 4.5-2.019 4.5-4.5v-12c0-2.481-2.019-4.5-4.5-4.5zm3.5 16.5c0 1.93-1.57 3.5-3.5 3.5h-8c-1.93 0-3.5-1.57-3.5-3.5v-12c0-1.93 1.57-3.5 3.5-3.5h8c1.93 0 3.5 1.57 3.5 3.5zm-8.5-4v4c0 .276-.224.5-.5.5s-.5-.224-.5-.5v-4c0-.276.224-.5.5-.5s.5.224.5.5zm-3 2v2c0 .276-.224.5-.5.5s-.5-.224-.5-.5v-2c0-.276.224-.5.5-.5s.5.224.5.5zm6-4v6c0 .276-.224.5-.5.5s-.5-.224-.5-.5v-6c0-.276.224-.5.5-.5s.5.224.5.5zm3 2v4c0 .276-.224.5-.5.5s-.5-.224-.5-.5v-4c0-.276.224-.5.5-.5s.5.224.5.5zm-1-4.5c-.276 0-.5-.224-.5-.5v-1.793l-2.249 2.249c-.401.402-1.101.402-1.502 0l-.705-.705-2.69 2.603c-.195.195-.512.195-.707 0s-.195-.512 0-.707l2.603-2.603c.401-.402 1.101-.402 1.502 0l.705.705 2.325-2.249h-1.781c-.276 0-.5-.224-.5-.5s.224-.5.5-.5h2c.827 0 1.5.673 1.5 1.5v2c0 .276-.224.5-.5.5zm-.5 15.5c0 .276-.224.5-.5.5h-10c-2.481 0-4.5-2.019-4.5-4.5v-14c0-.276.224-.5.5-.5s.5.224.5.5v14c0 1.93 1.57 3.5 3.5 3.5h10c.276 0 .5.224.5.5z"/></svg>