<?xml version="1.0" encoding="UTF-8"?>
<svg xmlns="http://www.w3.org/2000/svg" id="Layer_1" data-name="Layer 1" viewBox="0 0 24 24">
  <path d="M16.162,24c-.952,.002-1.845-.384-2.499-1.078l-2.391-2.535c-.379-.402-.36-1.035,.042-1.414s1.035-.36,1.414,.042l2.391,2.535c.528,.583,1.511,.598,2.056,.03l5.107-5.276c.385-.396,1.018-.406,1.414-.022,.397,.384,.407,1.017,.023,1.414l-5.119,5.288c-.661,.661-1.521,1.017-2.438,1.017Zm-4.232,0H5c-2.757,0-5-2.243-5-5V5C0,2.243,2.243,0,5,0H13c2.757,0,5,2.243,5,5v12.852l-1.834,1.895-1.982-2.103c-.55-.583-1.294-.918-2.095-.941-.812-.028-1.563,.266-2.146,.816s-.917,1.293-.94,2.095c-.023,.801,.266,1.563,.816,2.146l2.113,2.241ZM4,6c0,.552,.448,1,1,1H13c.553,0,1-.448,1-1s-.447-1-1-1H5c-.552,0-1,.448-1,1Zm0,5c0,.552,.448,1,1,1H13c.553,0,1-.448,1-1s-.447-1-1-1H5c-.552,0-1,.448-1,1Zm1,6h3c.552,0,1-.448,1-1s-.448-1-1-1h-3c-.552,0-1,.448-1,1s.448,1,1,1Z"/>
</svg>
