<?xml version="1.0" encoding="UTF-8"?>
<svg xmlns="http://www.w3.org/2000/svg" id="Layer_1" data-name="Layer 1" viewBox="0 0 24 24">
  <path d="M9.5,6c1.654,0,3-1.346,3-3s-1.346-3-3-3-3,1.346-3,3,1.346,3,3,3Zm0-5c1.103,0,2,.897,2,2s-.897,2-2,2-2-.897-2-2,.897-2,2-2Zm13.5,21.5c0,.276-.224,.5-.5,.5h-1.779c-.646,0-1.219-.412-1.423-1.026l-1.316-3.948c-.204-.614-.776-1.026-1.423-1.026h-1.584c-.259,3.902-3.508,7-7.475,7-4.136,0-7.5-3.364-7.5-7.5,0-3.708,2.764-6.9,6.429-7.424,.274-.042,.527,.151,.566,.424s-.151,.527-.424,.566c-3.176,.454-5.571,3.22-5.571,6.434,0,3.584,2.916,6.5,6.5,6.5,3.415,0,6.218-2.649,6.475-6h-1.475c-1.93,0-3.5-1.57-3.5-3.5V7.5c0-.276,.224-.5,.5-.5s.5,.224,.5,.5v3.5h7.5c.276,0,.5,.224,.5,.5s-.224,.5-.5,.5h-7.5v1.5c0,1.378,1.122,2.5,2.5,2.5h4.059c1.077,0,2.03,.687,2.372,1.709l1.316,3.949c.067,.205,.258,.342,.474,.342h1.779c.276,0,.5,.224,.5,.5ZM14.338,6.189l2.699-2.159-2.537-.03c-.276,0-.5-.224-.5-.5s.224-.5,.5-.5h2.526c.438,0,.815,.267,.96,.681,.146,.413,.018,.857-.324,1.13l-2.699,2.159,2.537,.03c.276,0,.5,.224,.5,.5s-.224,.5-.5,.5h-2.526c-.438,0-.815-.267-.96-.681-.146-.413-.018-.857,.324-1.13Zm9.662-1.689c0,.276-.224,.5-.5,.5h-2.526c-.438,0-.815-.267-.96-.681-.146-.413-.018-.857,.324-1.13l2.699-2.159-2.537-.03c-.276,0-.5-.224-.5-.5s.224-.5,.5-.5h2.526c.438,0,.815,.267,.96,.681,.146,.413,.018,.857-.324,1.13l-2.699,2.159,2.537,.03c.276,0,.5,.224,.5,.5Z"/>
</svg>
